HIERARCHY
ROOT Hips
{
	OFFSET 0.000000 0.000000 0.000000
	CHANNELS 6 Xposition Yposition Zposition Xrotation Yrotation Zrotation
	JOINT LeftUpLeg_virtual
	{
		OFFSET 0.000000 0.000000 0.000000
		CHANNELS 3 Xrotation Yrotation Zrotation
		JOINT LeftUpLeg
		{
			OFFSET 13.026900 -6.336304 -1.092800
			CHANNELS 3 Xrotation Yrotation Zrotation
			JOINT LeftLeg
			{
				OFFSET 0.524474 -46.096886 9.782700
				CHANNELS 3 Xrotation Yrotation Zrotation
				JOINT LeftFoot
				{
					OFFSET -0.524474 -53.427422 -12.948200
					CHANNELS 3 Xrotation Yrotation Zrotation
					JOINT LeftToeBase
					{
						OFFSET 0.192200 -14.009700 16.364100
						CHANNELS 3 Xrotation Yrotation Zrotation
						JOINT LeftToe_End
						{
							OFFSET -1.784700 -0.561700 9.474800
							CHANNELS 3 Xrotation Yrotation Zrotation
							End Site
							{
								OFFSET 0 0 0
							}
						}
					}
				}
			}
		}
	}
	JOINT RightUpLeg_virtual
	{
		OFFSET 0.000000 0.000000 0.000000
		CHANNELS 3 Xrotation Yrotation Zrotation
		JOINT RightUpLeg
		{
			OFFSET -12.883000 -6.336304 -1.092800
			CHANNELS 3 Xrotation Yrotation Zrotation
			JOINT RightLeg
			{
				OFFSET -0.524587 -46.096825 9.782800
				CHANNELS 3 Xrotation Yrotation Zrotation
				JOINT RightFoot
				{
					OFFSET 0.524587 -53.427383 -12.948300
					CHANNELS 3 Xrotation Yrotation Zrotation
					JOINT RightToeBase
					{
						OFFSET -0.192200 -14.009700 16.364100
						CHANNELS 3 Xrotation Yrotation Zrotation
						JOINT RightToe_End
						{
							OFFSET 1.784700 -0.561700 9.474800
							CHANNELS 3 Xrotation Yrotation Zrotation
							End Site
							{
								OFFSET 0 0 0
							}
						}
					}
				}
			}
		}
	}
	JOINT Spine_virtual
	{
		OFFSET 0.000000 0.000000 0.000000
		CHANNELS 3 Xrotation Yrotation Zrotation
		JOINT Spine
		{
			OFFSET 0.072000 7.257294 -0.789700
			CHANNELS 3 Xrotation Yrotation Zrotation
			JOINT Spine1
			{
				OFFSET 0.000000 12.508769 -0.658067
				CHANNELS 3 Xrotation Yrotation Zrotation
				JOINT Spine1_split
				{
					OFFSET 0.000000 12.508769 -0.658067
					CHANNELS 3 Xrotation Yrotation Zrotation
					JOINT Spine2
					{
						OFFSET 0.000000 12.508769 -0.658067
						CHANNELS 3 Xrotation Yrotation Zrotation
						JOINT Neck_virtual
						{
							OFFSET 0.000000 0.000000 0.000000
							CHANNELS 3 Xrotation Yrotation Zrotation
							JOINT Neck
							{
								OFFSET 0.000000 14.033295 7.520400
								CHANNELS 3 Xrotation Yrotation Zrotation
								JOINT Head
								{
									OFFSET 0.000000 8.198502 5.703100
									CHANNELS 3 Xrotation Yrotation Zrotation
									JOINT HeadTop_End
									{
										OFFSET 0.000000 17.760803 13.332701
										CHANNELS 3 Xrotation Yrotation Zrotation
										End Site
										{
											OFFSET 0 0 0
										}
									}
								}
							}
						}
						JOINT LeftShoulder_virtual
						{
							OFFSET 0.000000 0.000000 0.000000
							CHANNELS 3 Xrotation Yrotation Zrotation
							JOINT LeftShoulder
							{
								OFFSET 6.292450 5.785301 -0.669000
								CHANNELS 3 Xrotation Yrotation Zrotation
								JOINT LeftShoulder_split
								{
									OFFSET 6.292450 5.785301 -0.669000
									CHANNELS 3 Xrotation Yrotation Zrotation
									JOINT LeftArm
									{
										OFFSET 13.907140 -6.093903 1.965100
										CHANNELS 3 Xrotation Yrotation Zrotation
										JOINT LeftForeArm
										{
											OFFSET 34.140198 0.000000 0.000000
											CHANNELS 3 Xrotation Yrotation Zrotation
											JOINT LeftHand
											{
												OFFSET 40.960209 0.000000 0.000000
												CHANNELS 3 Xrotation Yrotation Zrotation
												End Site
												{
													OFFSET 0 0 0
												}
											}
										}
									}
								}
							}
						}
						JOINT RightShoulder_virtual
						{
							OFFSET 0.000000 0.000000 0.000000
							CHANNELS 3 Xrotation Yrotation Zrotation
							JOINT RightShoulder
							{
								OFFSET -6.292450 5.785301 -0.669000
								CHANNELS 3 Xrotation Yrotation Zrotation
								JOINT RightShoulder_split
								{
									OFFSET -6.292450 5.785301 -0.669000
									CHANNELS 3 Xrotation Yrotation Zrotation
									JOINT RightArm
									{
										OFFSET -13.907140 -6.093903 1.965100
										CHANNELS 3 Xrotation Yrotation Zrotation
										JOINT RightForeArm
										{
											OFFSET -34.140198 0.000000 0.000000
											CHANNELS 3 Xrotation Yrotation Zrotation
											JOINT RightHand
											{
												OFFSET -40.960209 0.000000 0.000000
												CHANNELS 3 Xrotation Yrotation Zrotation
												End Site
												{
													OFFSET 0 0 0
												}
											}
										}
									}
								}
							}
						}
					}
				}
			}
		}
	}
}
MOTION
Frames: 4
Frame Time: 0.03333333
0.555001 102.530365 -1.137337 0.000000 0.000000 0.000000 -4.881246 -46.897523 -2.636549 -39.583569 1.801258 13.922799 36.860216 -9.735507 1.261671 3.188314 -0.922938 -7.062317 -1.036685 -1.988746 0.184600 0.000000 0.000000 0.000000 -5.701300 -45.541949 -2.564194 -1.004228 -12.406744 -16.954929 27.000798 -6.234700 -0.439779 -18.731270 -6.702834 21.025894 -2.329117 0.140783 0.742787 0.000000 0.000000 0.000000 -3.982847 -43.560604 -1.890531 6.148181 4.993653 -1.252988 12.560612 9.401856 -3.192017 1.057983 -1.279185 0.606801 0.000000 0.000000 0.000000 12.217159 9.117255 -3.229222 -4.155694 -2.031205 0.408280 -4.515868 21.860318 -1.312407 0.000000 0.000000 0.000000 12.078965 9.347908 -3.038756 1.936660 0.080284 -7.154356 -2.935595 -3.160081 -0.556901 -14.537259 3.662049 -61.462099 8.898920 -46.976525 5.336906 0.000000 0.000000 0.000000 12.178589 9.316591 -3.279412 1.465603 10.229960 11.695337 -1.869284 3.264531 -0.703460 3.693108 -21.373363 61.170860 -5.926958 41.608850 8.019124 0.000000 0.000000 0.000000 
0.527982 102.538879 -1.079266 0.000000 0.000000 0.000000 -4.836901 -46.897865 -2.606947 -39.584717 1.813699 13.927838 36.842075 -9.730683 1.270090 3.138368 -0.888933 -7.028778 -1.003785 -1.993059 0.184800 0.000000 0.000000 0.000000 -5.617855 -45.566162 -2.542112 -1.005043 -12.291494 -16.948699 27.121561 -6.168563 -0.482802 -18.737652 -6.703566 21.065222 -2.308107 0.135855 0.760540 0.000000 0.000000 0.000000 -3.876313 -43.588894 -1.850184 6.120588 4.985345 -1.249764 12.523423 9.373841 -3.201683 1.111785 -1.381735 0.609207 0.000000 0.000000 0.000000 12.213006 9.088568 -3.216171 -4.116110 -1.900808 0.333058 -4.510598 21.995081 -1.247453 0.000000 0.000000 0.000000 12.049884 9.319807 -3.049087 1.950463 0.066255 -7.220154 -2.871769 -3.142434 -0.418682 -14.566345 3.585350 -61.453350 8.955133 -47.118429 5.376205 0.000000 0.000000 0.000000 12.149264 9.286905 -3.259616 1.478334 10.212761 11.702110 -1.972917 3.322423 -0.661789 3.700835 -21.339268 61.191624 -5.895458 41.502784 7.989499 0.000000 0.000000 0.000000 
0.514150 102.564980 -1.032928 0.000000 0.000000 0.000000 -4.756277 -46.951940 -2.558209 -39.546631 1.817663 13.922536 36.772632 -9.713724 1.300021 3.049622 -0.822407 -7.028336 -0.965000 -1.997702 0.168952 0.000000 0.000000 0.000000 -5.541066 -45.630376 -2.511114 -1.119561 -12.243211 -16.960220 27.305314 -6.081514 -0.543251 -18.748958 -6.701804 21.120417 -2.273395 0.129401 0.763931 0.000000 0.000000 0.000000 -3.748918 -43.637867 -1.803348 6.115681 4.962200 -1.246362 12.490633 9.322308 -3.200366 1.110728 -1.429603 0.644164 0.000000 0.000000 0.000000 12.189016 9.034971 -3.206761 -4.058130 -1.743253 0.265761 -4.417479 22.356746 -1.237673 0.000000 0.000000 0.000000 12.022967 9.260661 -3.055244 1.964246 0.046369 -7.261197 -2.819012 -3.101894 -0.300206 -14.613914 3.544913 -61.472037 9.009452 -47.280919 5.421414 0.000000 0.000000 0.000000 12.128825 9.234318 -3.235508 1.485408 10.190484 11.724634 -2.031722 3.335890 -0.635062 3.645507 -21.227449 61.200708 -5.828613 41.298855 7.916369 0.000000 0.000000 0.000000 
0.500192 102.590462 -1.022198 0.000000 0.000000 0.000000 -4.653921 -47.044366 -2.490001 -39.480338 1.821470 13.904728 36.678246 -9.690016 1.344885 2.951057 -0.733512 -7.065457 -0.934794 -2.002940 0.142154 0.000000 0.000000 0.000000 -5.474069 -45.716362 -2.464498 -1.349515 -12.254432 -16.995220 27.530430 -5.975327 -0.616311 -18.736256 -6.693250 21.232232 -2.234817 0.122313 0.754323 0.000000 0.000000 0.000000 -3.629885 -43.689407 -1.752342 6.134993 4.923926 -1.246943 12.461493 9.245336 -3.187767 1.044106 -1.429161 0.687560 0.000000 0.000000 0.000000 12.153679 8.956535 -3.198883 -3.999212 -1.552418 0.201038 -4.268765 22.974960 -1.306065 0.000000 0.000000 0.000000 11.994797 9.170092 -3.053436 1.976025 0.020173 -7.281195 -2.795139 -3.022431 -0.216066 -14.649953 3.564100 -61.509897 9.064558 -47.481023 5.478241 0.000000 0.000000 0.000000 12.108671 9.157545 -3.206257 1.490204 10.160778 11.738361 -2.063292 3.312547 -0.634731 3.546191 -21.075870 61.188489 -5.746795 41.036832 7.817316 0.000000 0.000000 0.000000 
